<?xml version="1.0" encoding="utf-8"?>
<!-- Generator: Adobe Illustrator 19.0.0, SVG Export Plug-In . SVG Version: 6.00 Build 0)  -->
<!DOCTYPE svg PUBLIC "-//W3C//DTD SVG 1.0//EN" "http://www.w3.org/TR/2001/REC-SVG-20010904/DTD/svg10.dtd">
<svg version="1.0" id="Layer_1" xmlns="http://www.w3.org/2000/svg" xmlns:xlink="http://www.w3.org/1999/xlink" x="0px" y="0px"
	 width="295px" height="85px" viewBox="0 0 295 85" style="enable-background:new 0 0 295 85;" xml:space="preserve">
<g id="XMLID_53_">
	<path id="XMLID_54_" style="fill:#FFFFFF;" d="M272.180481,52.359951c1.284302,1.692169,3.006836,3.078449,5.130737,3.711929
		c4.805328,1.434006,9.884033-0.976254,11.964508-5.458336l2.722687,0.811375
		c-2.479706,5.979004-9.109528,9.189789-15.476868,7.289349c-6.768677-2.017586-10.617279-9.142059-8.58667-15.949795
		c2.019745-6.770855,8.909576-9.970665,15.515778-7.99939c3.362396,1.003635,5.907471,3.169704,7.470093,6.062035l0.658478,1.21537
		L272.180481,52.359951z M270.735626,43.599712c-0.646515,2.162941-0.600952,4.356255,0.093292,6.265369l16.871307-8.936333
		c-1.17514-1.626141-2.909271-2.953732-5.018188-3.582592C277.558014,35.817413,272.312805,38.312763,270.735626,43.599712z"/>
</g>
<g id="XMLID_48_">
	<path id="XMLID_49_" style="fill:#FF6600;" d="M42.938377,42.824173c11.074497-6.118664,27.890175-14.896259,27.890175-14.896259
		s1.198082-2.367819-0.297623-4.958549c-1.495834-2.590729-4.145409-2.737032-4.145409-2.737032
		S50.375927,30.405968,39.539932,36.937775c0.238503-12.649792,1.044456-31.6017,1.044456-31.6017
		s-1.4515-2.221517-4.443035-2.221517S31.69832,5.336075,31.69832,5.336075s0.805952,18.951908,1.044455,31.6017
		C21.906778,30.405968,5.897187,20.232332,5.897187,20.232332s-2.649577,0.146303-4.145412,2.737032
		c-1.4957,2.590731-0.297621,4.958549-0.297621,4.958549s16.815678,8.777596,27.890179,14.896259
		C18.269831,48.942833,1.454153,57.720428,1.454153,57.720428s-1.191706,2.378803,0.297621,4.958549
		c1.489463,2.57975,4.145412,2.73703,4.145412,2.73703s16.009592-10.173634,26.845589-16.705441
		c-0.238503,12.649792-1.044455,31.601696-1.044455,31.601696s1.464243,2.221519,4.443033,2.221519
		s4.443035-2.221519,4.443035-2.221519s-0.805954-18.951904-1.044456-31.601696
		c10.835995,6.531807,26.845589,16.705441,26.845589,16.705441s2.655945-0.15728,4.145409-2.73703
		c1.489334-2.579746,0.297623-4.958549,0.297623-4.958549S54.012875,48.942833,42.938377,42.824173z M32.80135,44.752541
		L32.80135,44.752541l-0.000542,0.000408L32.80135,44.752541z M39.481358,44.752678v-0.000137l0.000813,0.000542
		L39.481358,44.752678z"/>
</g>
<path id="XMLID_17_" style="fill:#D85700;" d="M32.80162,44.752407l-0.000134,0.000134l-0.001358,0.000679l-0.000679,0.000404
	L1.751774,62.678978c1.489463,2.57975,4.145412,2.73703,4.145412,2.73703s16.009592-10.173634,26.845589-16.705441
	c-0.238503,12.649792-1.044455,31.601696-1.044455,31.601696s1.464243,2.221519,4.443033,2.221519V46.683079l-0.000137-0.002304
	h0.000137v-0.000134v-3.856468L32.80162,44.752407z"/>
<path id="XMLID_16_" style="fill:#D85700;" d="M39.483257,44.753624c0.010574,1.213402,0.029827,2.536633,0.056267,3.940399
	c0.000137,0.005424,0.000275,0.01112,0.000408,0.016544c10.835995,6.531807,26.845589,16.705441,26.845589,16.705441
	s2.655945-0.15728,4.145409-2.73703L39.483257,44.753624z"/>
<path id="XMLID_15_" style="fill:#D85700;" d="M39.483257,40.894718c1.056114,0.597546,2.211754,1.24255,3.440609,1.921452
	c0.004745,0.002579,0.009766,0.005424,0.014511,0.008003c11.074497-6.118664,27.890175-14.896259,27.890175-14.896259
	s1.198082-2.367819-0.297623-4.958549L39.481358,40.895802v0.000134L39.483257,40.894718z"/>
<path id="XMLID_14_" style="fill:#D85700;" d="M32.79945,40.894718l0.0019,0.001217v-0.000134L1.751774,22.969364
	c-1.4957,2.590731-0.297621,4.958549-0.297621,4.958549s16.815678,8.777596,27.890179,14.896259
	c0.004745-0.002579,0.009762-0.005424,0.014507-0.008003C30.587698,42.137268,31.743336,41.492264,32.79945,40.894718z"/>
<path id="XMLID_13_" style="fill:#D85700;" d="M36.141354,38.965263V3.114558c-2.991535,0-4.443033,2.221517-4.443033,2.221517
	s0.805952,18.951908,1.044455,31.6017c0.004608,0.002712,0.009628,0.005833,0.014236,0.008541
	C33.959564,37.671185,35.095814,38.349411,36.141354,38.965263z"/>
<path id="XMLID_40_" style="fill:#FFFFFF;" d="M108.514999,26.347559c1.002281,0,1.880913,0.878626,1.880913,1.880913
	c0,1.004456-0.878632,1.880913-1.880913,1.880913c-1.002289,0-1.880913-0.876457-1.880913-1.880913
	C106.634087,27.226185,107.512711,26.347559,108.514999,26.347559z M109.935989,34.205307v24.200214h-2.84198V34.205307H109.935989z
	"/>
<path id="XMLID_37_" style="fill:#FFFFFF;" d="M138.232117,53.515579c-1.922119,2.883202-5.098206,5.601521-9.990311,5.601521
	c-7.061562,0-12.871346-5.727348-12.871346-12.832294c0-7.063732,5.809784-12.78891,12.871346-12.78891
	c4.892105,0,8.068192,2.674934,9.990311,5.59935v-4.889938h2.84198v24.200214h-2.84198V53.515579z M128.241806,36.253265
	c-5.516914,0-9.94693,4.514626-9.94693,10.03154c0,5.558128,4.430016,10.072754,9.94693,10.072754
	c5.475693,0,9.990311-4.514626,9.990311-10.072754C138.232117,40.767891,133.717499,36.253265,128.241806,36.253265z"/>
<path id="XMLID_35_" style="fill:#FFFFFF;" d="M146.927277,34.205307h2.84198v4.473404
	c0.835236-2.132568,4.054703-5.182816,8.15062-5.182816c6.226334,0,9.654053,3.970093,9.654053,9.654053v15.255573h-2.84198
	V43.149948c0-4.095921-3.134857-6.896683-7.230774-6.896683c-4.011307,0-7.606094,3.260685-7.731918,7.230778v14.921478h-2.84198
	V34.205307z"/>
<path id="XMLID_32_" style="fill:#FFFFFF;" d="M171.340103,46.284805c0-7.063732,5.809784-12.78891,12.871338-12.78891
	c7.107117,0,12.87352,5.725178,12.87352,12.78891c0,7.104946-5.766403,12.832294-12.87352,12.832294
	C177.149887,59.1171,171.340103,53.389751,171.340103,46.284805z M194.160538,46.284805
	c0-5.516914-4.388794-10.03154-9.949097-10.03154c-5.473511,0-9.94693,4.514626-9.94693,10.03154
	c0,5.558128,4.473419,10.072754,9.94693,10.072754C189.771744,56.357559,194.160538,51.842934,194.160538,46.284805z"/>
<path id="XMLID_30_" style="fill:#FFFFFF;" d="M219.950958,39.221073c-1.796295-1.796303-4.345398-2.967808-7.104935-2.967808
	c-5.475693,0-9.905716,4.514626-9.905716,10.03154c0,5.558128,4.430023,10.072754,9.905716,10.072754
	c2.759537,0,5.30864-1.169331,7.104935-2.967808l2.006744,1.965523c-2.38205,2.338669-5.558121,3.761826-9.111679,3.761826
	c-7.10495,0-12.830139-5.727348-12.830139-12.832294c0-7.063732,5.725189-12.78891,12.830139-12.78891
	c3.553558,0,6.72963,1.377602,9.111679,3.761826L219.950958,39.221073z"/>
<path id="XMLID_27_" style="fill:#FFFFFF;" d="M223.884186,46.284805c0-7.063732,5.809784-12.78891,12.871338-12.78891
	c7.107117,0,12.87352,5.725178,12.87352,12.78891c0,7.104946-5.766403,12.832294-12.87352,12.832294
	C229.69397,59.1171,223.884186,53.389751,223.884186,46.284805z M246.70462,46.284805
	c0-5.516914-4.388794-10.03154-9.949097-10.03154c-5.473526,0-9.94693,4.514626-9.94693,10.03154
	c0,5.558128,4.473404,10.072754,9.94693,10.072754C242.315826,56.357559,246.70462,51.842934,246.70462,46.284805z"/>
<path id="XMLID_25_" style="fill:#FFFFFF;" d="M266.392395,33.955818l-0.919861,2.631546
	c-0.626984-0.208267-1.253937-0.334099-1.922119-0.334099c-3.594788,0-6.477997,2.967808-6.477997,6.52137v15.630886h-2.84198
	V34.205307h2.84198v3.219463c1.086914-2.17379,3.427734-3.928875,6.477997-3.928875
	C264.511475,33.495895,265.472534,33.662945,266.392395,33.955818z"/>
<path id="XMLID_1_" style="fill:#FFFFFF;" d="M95.387657,28.737343c-0.929207,0.493958-1.878204,0.999575-2.84198,1.514006v3.953959
	h-2.84198v2.84198h2.84198v15.674274c0,3.551392,2.592491,5.68396,5.68396,5.68396h2.173782v-2.84198h-2.173782
	c-1.544655,0-2.84198-0.878628-2.84198-2.84198V37.047287h5.015762v-2.84198h-5.015762V28.737343z"/>
</svg>
