<svg version="1.0" id="Layer_1" xmlns="http://www.w3.org/2000/svg" xmlns:xlink="http://www.w3.org/1999/xlink" x="0px" y="0px"
	 width="45px" height="45px" viewBox="397.375 0 45 45" style="enable-background:new 397.375 0 45 45;" xml:space="preserve">
<g>
	<path class="link-icon" style="fill:#333333;" d="M436.632874,17.937887c0-9.240391-7.517487-16.757879-16.757874-16.757879
		s-16.757874,7.517489-16.757874,16.757879c0,7.451645,4.889038,13.779417,11.62738,15.951487l5.130493,8.290634l5.130859-8.289875
		C431.743835,31.717302,436.632874,25.389912,436.632874,17.937887z M419.875,31.53503
		c-7.497314,0-13.595978-6.100718-13.595978-13.596786c0-7.496894,6.099091-13.59637,13.595978-13.59637
		s13.595978,6.099477,13.595978,13.59637C433.471375,25.434313,427.371887,31.53503,419.875,31.53503z"/>
</g>
<g>
	<path class="link-icon" style="fill:#333333;" d="M421.744141,21.555313h-4.453125v-0.489746c0-0.833496,0.085938-1.510254,0.257812-2.030273
		s0.427734-0.994629,0.767578-1.424316s1.103516-1.186035,2.291016-2.269044c0.632812-0.566895,0.949219-1.086914,0.949219-1.55957
		s-0.126953-0.839844-0.380859-1.102051s-0.638672-0.393555-1.154297-0.393555c-0.554688,0-1.013672,0.202148-1.376953,0.605957
		c-0.363281,0.404297-0.595703,1.108887-0.697266,2.114258l-4.546875-0.618652
		c0.15625-1.839355,0.763672-3.319336,1.822266-4.440918s2.681641-1.682129,4.869141-1.682129
		c1.703125,0,3.078125,0.391113,4.125,1.172852c1.421875,1.057129,2.132812,2.466309,2.132812,4.228027
		c0,0.730469-0.183594,1.435547-0.550781,2.114258c-0.367188,0.678712-1.117188,1.508302-2.25,2.487794
		c-0.789062,0.6875-1.287109,1.239746-1.494141,1.65625C421.847656,20.341446,421.744141,20.884903,421.744141,21.555313z
		 M417.138672,22.857071h4.769531v4.62793h-4.769531V22.857071z"/>
</g>
</svg>
