<?xml version="1.0" encoding="utf-8"?>
<!-- Generator: Adobe Illustrator 19.0.0, SVG Export Plug-In . SVG Version: 6.00 Build 0)  -->
<!DOCTYPE svg PUBLIC "-//W3C//DTD SVG 1.0//EN" "http://www.w3.org/TR/2001/REC-SVG-20010904/DTD/svg10.dtd">
<svg version="1.0" id="Layer_1" xmlns="http://www.w3.org/2000/svg" xmlns:xlink="http://www.w3.org/1999/xlink" x="0px" y="0px"
	 width="25px" height="25px" viewBox="0 0 25 25" style="enable-background:new 0 0 25 25;" xml:space="preserve">
<g id="XMLID_15_">
	<path id="XMLID_16_" style="fill:#FFFFFF;" d="M14.622593,12.5c3.458374-1.910752,8.70962-4.651844,8.70962-4.651844
		s0.37414-0.739429-0.092941-1.548469c-0.467125-0.80904-1.29454-0.854728-1.29454-0.854728s-4.999519,3.177051-8.383413,5.216821
		c0.074481-3.950311,0.326165-9.868665,0.326165-9.868665S13.434205,0.099375,12.5,0.099375s-1.387483,0.693741-1.387483,0.693741
		s0.251684,5.918353,0.326165,9.868665C8.054789,8.62201,3.05527,5.44496,3.05527,5.44496s-0.827417,0.045688-1.29454,0.854728
		c-0.467081,0.80904-0.092942,1.548469-0.092942,1.548469S6.919033,10.589248,10.377407,12.5
		c-3.458375,1.910752-8.70962,4.651844-8.70962,4.651844s-0.372149,0.742859,0.092942,1.54847
		c0.465133,0.805609,1.29454,0.854727,1.29454,0.854727s4.999519-3.17705,8.383413-5.216821
		c-0.074481,3.950311-0.326165,9.868665-0.326165,9.868665S11.569776,24.900625,12.5,24.900625s1.387483-0.693741,1.387483-0.693741
		s-0.251684-5.918354-0.326165-9.868665c3.383894,2.039771,8.383413,5.216821,8.383413,5.216821s0.829407-0.049118,1.29454-0.854727
		c0.465092-0.805611,0.092941-1.54847,0.092941-1.54847S18.080967,14.410752,14.622593,12.5z M11.456975,13.102197
		L11.456975,13.102197l-0.00017,0.000127L11.456975,13.102197z M13.543025,13.102239v-0.000042l0.000255,0.000169
		L13.543025,13.102239z"/>
</g>
<path id="XMLID_5_" style="fill:#FFFFFF;" d="M11.457059,13.102154l-0.000042,0.000043l-0.000423,0.000212l-0.000212,0.000127
	l-9.695652,5.597778c0.465133,0.805609,1.29454,0.854727,1.29454,0.854727s4.999519-3.17705,8.383413-5.216821
	c-0.074481,3.950311-0.326165,9.868665-0.326165,9.868665S11.569776,24.900625,12.5,24.900625V13.70507l-0.000042-0.00072H12.5
	v-0.000042V12.5L11.457059,13.102154z"/>
<path id="XMLID_4_" style="fill:#FFFFFF;" d="M13.543618,13.102535c0.003303,0.378924,0.009315,0.792146,0.017572,1.230518
	c0.000042,0.001694,0.000085,0.003472,0.000127,0.005166c3.383894,2.039771,8.383413,5.216821,8.383413,5.216821
	s0.829407-0.049118,1.29454-0.854727L13.543618,13.102535z"/>
<path id="XMLID_3_" style="fill:#FFFFFF;" d="M13.543618,11.897465c0.329806,0.186604,0.690693,0.388027,1.074444,0.600037
	c0.001482,0.000805,0.003049,0.001694,0.004531,0.002499c3.458374-1.910752,8.70962-4.651844,8.70962-4.651844
	s0.37414-0.739429-0.092941-1.548469l-9.696246,5.598116v0.000043L13.543618,11.897465z"/>
<path id="XMLID_2_" style="fill:#FFFFFF;" d="M11.456382,11.897465l0.000593,0.000381v-0.000043L1.760729,6.299687
	c-0.467081,0.80904-0.092942,1.548469-0.092942,1.548469S6.919033,10.589248,10.377407,12.5
	c0.001482-0.000805,0.003049-0.001694,0.004531-0.002499C10.765689,12.285492,11.126575,12.084068,11.456382,11.897465z"/>
<path id="XMLID_1_" style="fill:#FFFFFF;" d="M12.5,11.29493V0.099375c-0.934205,0-1.387483,0.693741-1.387483,0.693741
	s0.251684,5.918353,0.326165,9.868665c0.00144,0.000847,0.003006,0.001821,0.004446,0.002667
	C11.818666,10.890812,12.173496,11.10261,12.5,11.29493z"/>
</svg>
