<?xml version="1.0" encoding="utf-8"?>
<!-- Generator: Adobe Illustrator 19.0.0, SVG Export Plug-In . SVG Version: 6.00 Build 0)  -->
<!DOCTYPE svg PUBLIC "-//W3C//DTD SVG 1.0//EN" "http://www.w3.org/TR/2001/REC-SVG-20010904/DTD/svg10.dtd">
<svg version="1.0" id="Layer_1" xmlns="http://www.w3.org/2000/svg" xmlns:xlink="http://www.w3.org/1999/xlink" x="0px" y="0px"
	 width="45px" height="45px" viewBox="337.5 0 45 45" style="enable-background:new 337.5 0 45 45;" xml:space="preserve">
<g>
	<polygon class="link-icon" style="fill:#333333;" points="362.493073,16.683912 362.493073,14.255183 356.010895,14.255183 356.010895,16.748251
		357.506927,16.748251 357.506927,25.723495 356.010895,25.723495 356.010895,28.217054 363.989105,28.217054 363.989105,25.723495
		362.493073,25.723495 	"/>
	<circle class="link-icon" style="fill:#333333;" cx="360" cy="10.201737" r="2.493069"/>
	<path class="link-icon" style="fill:#333333;" d="M376.757874,17.937887c0-9.240391-7.517487-16.757879-16.757874-16.757879
		s-16.757874,7.517489-16.757874,16.757879c0,7.451645,4.889038,13.779417,11.62738,15.951487L360,42.180008l5.130859-8.289875
		C371.868835,31.717302,376.757874,25.389912,376.757874,17.937887z M360,31.53503
		c-7.497314,0-13.595978-6.100718-13.595978-13.596786c0-7.496894,6.099091-13.59637,13.595978-13.59637
		s13.595978,6.099477,13.595978,13.59637C373.596375,25.434313,367.496887,31.53503,360,31.53503z"/>
</g>
</svg>
