<svg xmlns="http://www.w3.org/2000/svg" xmlns:xlink="http://www.w3.org/1999/xlink" version="1.0" id="Layer_1" x="0px" y="0px" width="50px" height="45px" viewBox="465.742126 0 50 45" style="enable-background:new 465.742126 0 50 45;" xml:space="preserve">
<path class="link-icon" style="fill:#333333;" d="M466.769806 13.221515l4.407837 5.501374v15.504635c0 0.2 0.1 0.5 0.4 0.6 l18.379608 8.381409c0.010101 0 0 0 0 0.006721c0.074768 0 0.2 0.1 0.2 0.1 c0.072235 0 0.142792-0.016792 0.21167-0.041996c0.008392-0.002518 0.016785-0.000839 0.022675-0.004196l18.379608-7.397038 c0.23938-0.095749 0.395599-0.327564 0.395599-0.583736V18.78252l5.820526-8.070642 c0.113403-0.157902 0.147827-0.357798 0.093262-0.542578c-0.052917-0.187299-0.189819-0.337643-0.368713-0.409873 l-18.379639-7.395359c-0.26709-0.108348-0.577026-0.019319-0.746674 0.215855l-5.831482 8.088281l-13.09494 5.3 l-9.191071-3.710697c-0.265411-0.106668-0.569458-0.021838-0.741638 0.2 C466.584198 12.7 466.6 13 466.8 13.221515z M513.523926 10.627889l-5.179688 7.182862l-17.176056-6.911574 l5.180542-7.182863L513.523926 10.627889z M507.93689 34.78606l-17.119781 6.889736V26.400455l17.119781-6.888897V34.78606z M472.437469 19.511559l17.119781 6.888897v15.22831l-17.119781-7.806911V19.511559z M469.260132 14.31423l17.428864 7.1 l3.000122 3.742617l-17.430542-7.115656L469.260132 14.31423z"/>
</svg>
